<svg xmlns="http://www.w3.org/2000/svg" viewBox="0 0 120 120" fill="none">
  <defs>
    <linearGradient id="shieldGrad" x1="0%" y1="0%" x2="100%" y2="100%">
      <stop offset="0%" style="stop-color:#00F5FF;stop-opacity:1" />
      <stop offset="100%" style="stop-color:#BF00FF;stop-opacity:1" />
    </linearGradient>
    <filter id="glow">
      <feGaussianBlur stdDeviation="2" result="coloredBlur"/>
      <feMerge>
        <feMergeNode in="coloredBlur"/>
        <feMergeNode in="SourceGraphic"/>
      </feMerge>
    </filter>
  </defs>
  <path d="M60 8 L100 24 L100 58 C100 82 82 98 60 112 C38 98 20 82 20 58 L20 24 Z"
        stroke="url(#shieldGrad)" stroke-width="3" fill="#0D1117" filter="url(#glow)"/>
  <path d="M48 38 C48 32 52 28 58 28 C64 28 68 31 68 35 C68 39 64 41 58 43 C52 45 48 47 48 53 C48 59 52 63 58 63 C64 63 68 60 68 56"
        stroke="#00F5FF" stroke-width="4" stroke-linecap="round" fill="none"/>
  <path d="M72 28 L72 63 M66 36 L78 36"
        stroke="#BF00FF" stroke-width="4" stroke-linecap="round" fill="none"/>
  <circle cx="60" cy="48" r="3" fill="#00F5FF"/>
</svg>
